<svg xmlns="http://www.w3.org/2000/svg" viewBox="0 0 100 100"><defs><style>.cls-1,.cls-2{fill:none}.cls-2{stroke:#b3b3b3;stroke-miterlimit:10;stroke-width:2.12px}.cls-3{fill:#b3b3b3}</style></defs><g id="Layer_2" data-name="Layer 2"><g id="Layer_1-2" data-name="Layer 1"><rect width="100" height="100" class="cls-1"/><path d="M97.81,30.36c-6-23.66-33.15-17.63-39-16a1.12,1.12,0,0,1-1.38-.77c-.61-2-2.45-6-7.37-6a7.44,7.44,0,0,0-7.59,5.94,1.11,1.11,0,0,1-1.38.79c-6-1.61-32.91-7.52-38.92,16.06-6.77,26.55,18.13,39,40.06,56.88l.06.05,7,4.94a1.14,1.14,0,0,0,1.3,0l7-4.94.06-.05C79.68,69.37,104.58,56.91,97.81,30.36Z" class="cls-2"/><ellipse cx="50.22" cy="14.48" class="cls-2" rx="2.89" ry="2.57"/><path d="M74.46,16.41c-19.25-1.1-23.66,9.75-24.35,11.94-.69-2.19-5.1-13-24.35-11.94C4.36,17.63,4.77,39.57,5.31,43.1s4.92,18.64,44.85,43.62h0c39.92-25,44.21-40.11,44.75-43.62S95.86,17.63,74.46,16.41Z" class="cls-2"/><path d="M82.73,25s-13.18-4.78-22.12,4S41.74,33.7,41.74,33.7c-13.36-6.14-20.86-4.42-20.86-4.42-5.38.58-8.32,3.15-9.92,5.9a13,13,0,0,0,0,12.56C19.57,64.33,50.11,83.2,50.11,83.2s36.5-22.67,40.11-37.75S82.73,25,82.73,25ZM80.88,53.94a131.35,131.35,0,0,1-30.74,25.6l-3.84-3.2a.89.89,0,0,1,1-1L50,77.74s9.12-5.11,14.72-10.3l-2.49-2.21A1.11,1.11,0,0,1,63.54,64l2.4,2.35s9.66-7.64,12.82-12.51L76.18,52s-.31-1.22,1.22-1.36L80,52.72s9.59-8.92,3.78-19.48l-3,1.56s-1.35-.07-.78-1.19l4.54-2.37S92.39,42.83,80.88,53.94Z" class="cls-3"/></g></g></svg>