<svg xmlns="http://www.w3.org/2000/svg" viewBox="0 0 100.05 100.05"><defs><style>.cls-1{fill:none;}.cls-2{fill:#b3b3b3;}</style></defs><g id="Layer_2" data-name="Layer 2"><g id="Layer_1-2" data-name="Layer 1"><rect class="cls-1" x="0.03" y="0.03" width="100" height="100"/><path class="cls-2" d="M85.41,35.38V14.64H64.67L50,0,35.38,14.64H14.64V35.38L0,50,14.64,64.67V85.41H35.38L50,100.05,64.67,85.41H85.41V64.67L100.05,50ZM50,85.76A35.74,35.74,0,1,1,85.76,50,35.74,35.74,0,0,1,50,85.76Z"/><path class="cls-2" d="M50,18.89A31.14,31.14,0,1,0,81.16,50,31.14,31.14,0,0,0,50,18.89Zm-9.18,24.7L32.59,50l8.26,6.32v5.13l-.57-.4L28,51.56l-.79-.62V49l.79-.63,12.25-9.51.57-.4ZM55.61,35.5,48.83,65.41l-.06.23H44.56l.22-1.14,6.78-29.91.06-.23h4.22ZM72,51.68,59.77,61.19l-.57.4V56.46L67.46,50,59.2,43.59V38.46l.51.46L72,48.49l.8.62v1.94Z"/></g></g></svg>