<svg xmlns="http://www.w3.org/2000/svg" viewBox="0 0 100 100"><defs><style>.cls-1{fill:none}.cls-2{fill:#b3b3b3}</style></defs><g id="Layer_2" data-name="Layer 2"><g id="Layer_1-2" data-name="Layer 1"><rect width="100" height="100" class="cls-1"/><path d="M95.45,34.91a38.11,38.11,0,0,0-11.29-11.1C74.93,17.74,62.8,14.39,50,14.39A71.57,71.57,0,0,0,37.43,15.5a42,42,0,0,0-8.64-6.38A34.21,34.21,0,0,0,1.67,7.34a2.49,2.49,0,0,0-1,4.07c3.66,3.78,9.71,11.26,8.23,18.05C3.14,35.38,0,42.51,0,49.93S3.14,64.62,8.92,70.54c1.49,6.79-4.56,14.27-8.22,18a2.49,2.49,0,0,0,1,4.07,34.15,34.15,0,0,0,27.11-1.78,42.05,42.05,0,0,0,8.65-6.38A71.49,71.49,0,0,0,50,85.61c12.8,0,24.93-3.34,34.16-9.42A38.08,38.08,0,0,0,95.45,65.1a27.31,27.31,0,0,0,0-30.19Zm-46,41.93a60.37,60.37,0,0,1-15.61-2l-3.52,3.38A32.24,32.24,0,0,1,23.87,83a25.38,25.38,0,0,1-9.17,2.6l.5-.94Q20.48,75,18.05,67.23C12.29,62.7,8.83,56.9,8.83,50.59c0-14.5,18.2-26.25,40.65-26.25S90.13,36.09,90.13,50.59,71.93,76.84,49.48,76.84Z" class="cls-2"/><path d="M30,44.56a6,6,0,1,0,6,5.95A6,6,0,0,0,30,44.56Z" class="cls-2"/><path d="M49.32,44.56a6,6,0,1,0,6,5.95A6,6,0,0,0,49.32,44.56Z" class="cls-2"/><path d="M68.6,44.56a6,6,0,1,0,6,5.95A6,6,0,0,0,68.6,44.56Z" class="cls-2"/></g></g></svg>