<svg xmlns="http://www.w3.org/2000/svg" viewBox="0 0 173 35.7"><defs><style>.cls-1{fill:#fff;}</style></defs><g id="Layer_2" data-name="Layer 2"><g id="Layer_1-2" data-name="Layer 1"><path class="cls-1" d="M74.8,20.61a3.11,3.11,0,0,0,.52-.5c0-.14-.07-.33-.13-.47q-3,.46-6,.75a16.61,16.61,0,0,1-1.87.09c-.2,0-.41-.18-.62-.27a3.85,3.85,0,0,1,.24-.5,1.3,1.3,0,0,0-.62-2.05,5.14,5.14,0,0,0-2.13-.16,6,6,0,0,0-3.89,2.94,1.43,1.43,0,0,0,.13,1.91,1.59,1.59,0,0,0,1.95.28l.07.18L58.5,25.3c-.1-.95-.23-1.72-.27-2.49,0-1.13,0-2.26,0-3.39a.69.69,0,0,0-.7-.78c-.42,0-.54.26-.65.64a3.35,3.35,0,0,1-2.16,2.63,1,1,0,0,1-1.45-.53c-.26-.52-.42-1.08-.65-1.62s-.48-.55-.8-.09-.55.88-.86,1.29-.7.84-.8.79a4.67,4.67,0,0,1-1-1c-.07-.07-.07-.2-.12-.3a8.76,8.76,0,0,1-.78-3.27,2.68,2.68,0,0,1,.09-.93c.36-1.28.81-2.55,1.12-3.84a11.85,11.85,0,0,0,.26-2.52,7.82,7.82,0,0,0-.09-1.53,2.75,2.75,0,0,0-.38-.66,5.46,5.46,0,0,0-.36-.45.54.54,0,0,0-.4-.15,3.68,3.68,0,0,0-.56.06l-.22,0A3,3,0,0,0,46,9.83,17.51,17.51,0,0,0,46,15.47a4.47,4.47,0,0,1-.34,3.59c-.23.35-.37.77-.61,1.11-.64.88-1.31,1.74-2,2.59-.39.47-.67.23-.85-.2-.28-.69-.51-1.39-.81-2.06a2.61,2.61,0,0,1,.11-2.37,14.4,14.4,0,0,0,1.28-3.33,3.61,3.61,0,0,1,.17-.63A1.5,1.5,0,0,1,43,14l0-.14v-.16a.55.55,0,0,1,.15-.36.64.64,0,0,1,.39-.18l.4,0h.16l.22-.05v-.72h-.62a.59.59,0,0,1-.44-.14.51.51,0,0,1-.14-.26,2.23,2.23,0,0,1,0-.27v.06a.43.43,0,0,1,0-.16v-.14A3.87,3.87,0,0,0,43,10.15a1.13,1.13,0,0,0-1.46-.81c-1,.19-1.62.61-1.7,1.7a3.3,3.3,0,0,1-.32,1,.67.67,0,0,1-.44.35c-.6,0-1.2,0-1.8,0-.33,0-.69,0-.65.4,0,.2.36.49.58.51a17.67,17.67,0,0,0,1.93,0c0,.15.05.27.06.4l.3,6c0,.15,0,.34-.06.44a8,8,0,0,1-2.88,2.61c-.44.21-.82.23-1.08-.38a1.27,1.27,0,0,1,0-1.21,11.08,11.08,0,0,0,.61-1.57c.13-.43.28-.92-.27-1.2a1.28,1.28,0,0,0-1.38.59A7.07,7.07,0,0,0,34,21a2.08,2.08,0,0,1-.82,1.74c-.7.58-1.09.51-1.56-.28-.06-.11-.16-.2-.22-.32-.53-1-1.09-1.89-.49-3.25a33,33,0,0,0,1.61-5.6,4.21,4.21,0,0,0-.18-3.06,1.67,1.67,0,0,0-1.47-1,1.86,1.86,0,0,0-1.64.75,5.75,5.75,0,0,0-1,3.22A29.5,29.5,0,0,0,28.34,17,7.26,7.26,0,0,0,29,19.4a.91.91,0,0,1-.06,1.15c-1.05,1.19-2.12,2.37-3.21,3.52a1.59,1.59,0,0,1-1.76.25,1.36,1.36,0,0,1-.44-1.4,4.41,4.41,0,0,1,3.19-3.41,3,3,0,0,0,.53-.22l0-.23a3.51,3.51,0,0,0-1.12-.4c-1.32,0-2.64.09-4,.09-1.61,0-3.22,0-4.84-.06a.78.78,0,0,1-.56-.37,12,12,0,0,1-.4-1.37c-.4-1.31-.79-2.63-1.21-3.95-.16-.48-.47-.95-.58-1.43a14.22,14.22,0,0,1-.77-2.06c-.29-1-.6-2-1-3-.12-.33-.25-.66-.39-1a.86.86,0,0,0-.14-.13l0,0c-.19.45-.41.89-.61,1.33,0,.08.08.15.11.22a.52.52,0,0,0-.22,0,7.05,7.05,0,0,0-.3.76,10.27,10.27,0,0,1-.62,1.82c0,.1,0,.2-.07.3-.4,1.53-.78,3.06-1.22,4.57C9,15.62,8.59,16.78,8.24,18c-.11.38-.27.57-.66.54s-.52,0-.78-.06a16.9,16.9,0,0,0-4.92-.08,8,8,0,0,0-1.49.38c-.49.14-.48.49-.19.79a29.06,29.06,0,0,0,2.16,2c1.15.93,2.36,1.77,3.52,2.67a.7.7,0,0,1,.2.58c-.14.65-.35,1.29-.55,1.92S5.12,27.78,5,28.35c-.2,1-1.1,2-.33,3.19h0a5.69,5.69,0,0,1,.56.26l0,0h0l.1,0,.31.08.08,0A1.56,1.56,0,0,0,6,31.51c.31-1.36.61-2.74.93-4.1a16.06,16.06,0,0,1,.54-1.83c0-.12.44-.23.54-.16.57.4,1.09.88,1.65,1.3s.89.58,1.36.89c0,0-.05.12,0,.13,3.67,2.78,7.39,5.46,11.42,8,.06-.33.16-.52.11-.68a5.19,5.19,0,0,0-.48-1.2A28.79,28.79,0,0,1,19.52,27c-.41-1.39-.84-2.78-1.28-4.16-.26-.82-.55-1.62-.85-2.48H23c-.47,1.1-1.15,2-1.15,3.23A2.28,2.28,0,0,0,23.25,26a3.5,3.5,0,0,0,3.6-.83c1-1,1.93-2.11,2.9-3.18a3.39,3.39,0,0,0,1.91,2.1c1.11.45,1.85-.37,2.62-1,.09.18.17.31.23.45.37.83.6,1,1.42.78a8.1,8.1,0,0,0,2.16-1.08,17,17,0,0,0,1.72-1.62c.26.75.43,1.45.72,2.09a2.23,2.23,0,0,0,3.78,0c.74-1.17,1.42-2.38,2.12-3.57.14-.22.29-.43.46-.68.23.63.4,1.15.6,1.65s.48,1.07.73,1.59a1.48,1.48,0,0,0,2.65.34c.28-.34.59-.66.8-.9a8.61,8.61,0,0,0,1.18,1c1,.59,2.09.18,3.09-.19.66-.25.84-.21.89.47a21.62,21.62,0,0,1,.07,2.41,1.11,1.11,0,0,1-.39.73,8.76,8.76,0,0,0-2.75,3.2,2.71,2.71,0,0,0,.2,2.68,3.15,3.15,0,0,0,2.77,1.08,2.25,2.25,0,0,0,2.08-2,22.68,22.68,0,0,0,.07-3.5c0-.41-.23-.88-.1-1.21s.61-.45.95-.62c2.26-1.11,4-2.9,5.92-4.48a1.27,1.27,0,0,1,1.21-.29,6,6,0,0,0,2,.2c2-.25,3.93-.51,5.88-.82ZM6.74,22.51c0,.07-.39.1-.51,0C5.6,22.09,5,21.6,4.38,21.14s-1-.69-1.6-1.11a24.86,24.86,0,0,1,4.8,0C7.28,20.94,7,21.73,6.74,22.51ZM10,17.8c.36-1.13.68-2.28,1.05-3.41.24-.76.54-1.51.8-2.26.14-.4.26-.81.39-1.22l.14-.09L15,18.66a1.87,1.87,0,0,1-.34.07l-4.17-.2C9.78,18.49,9.75,18.44,10,17.8Zm8.48,12.51a2,2,0,0,1,0,.36c-.79-.46-1.49-.81-2.14-1.25-1.47-1-2.9-2.06-4.35-3.09C11,25.67,10,25,9.09,24.39a1.51,1.51,0,0,0-.3-.1c-.68-.25-.83-.71-.54-1.37a24.58,24.58,0,0,0,.93-2.33.66.66,0,0,1,.24-.37A.31.31,0,0,1,9.73,20c1.52,0,3,0,4.57,0a1.22,1.22,0,0,1,1.26.64l0,.08c.46,1.23.93,2.47,1.3,3.73C17.45,26.42,17.93,28.37,18.43,30.31ZM30.12,18.05c0,.12-.18.2-.27.31-.09-.36-.17-.66-.22-1a15.29,15.29,0,0,1-.05-5.48,1.8,1.8,0,0,1,.12-.44,1.08,1.08,0,0,1,.41-.64,1.34,1.34,0,0,1,.31-.22.8.8,0,0,1,.37-.06.68.68,0,0,1,.31.08l.06,0a.14.14,0,0,0,0,.06.81.81,0,0,1,.27.28,1,1,0,0,1,.12.61,1.14,1.14,0,0,1,0,.52l0,.15a12.54,12.54,0,0,1-1,4.34C30.39,17.05,30.28,17.56,30.12,18.05Zm11-7.29a.63.63,0,0,1,.54-.21c.11,0,.24.28.27.44.21,1.29,0,1.47-1.47,1.3C40.7,11.75,40.89,11.23,41.14,10.76Zm-.35,6.58h-.14c-.08-1.11-.19-2.22-.2-3.33,0-.59.3-.69,1.15-.53.53.1.26.45.2.71-.18.78-.38,1.55-.61,2.32A4.94,4.94,0,0,1,40.79,17.34Zm6.53-2.92a9,9,0,0,1,.27-5.33.11.11,0,0,1,0-.12c0-.05,0-.12.07-.18a.36.36,0,0,1,.11-.14.35.35,0,0,1,.31-.08c.26.06.27.46.27.67a6.64,6.64,0,0,1,0,1,2.93,2.93,0,0,1-.05.29A17.11,17.11,0,0,1,47.32,14.42ZM57,29.51a15.18,15.18,0,0,1-.53,2.19.69.69,0,0,1-.52.36c-.12,0-.3-.28-.37-.46a2.6,2.6,0,0,1,.25-2.42c.3-.48.67-.92,1-1.38l.18.06A10.07,10.07,0,0,1,57,29.51Zm8.69-10.1c-.43.92-3.14,2.34-4.26,2.16A4.19,4.19,0,0,1,63.65,19a4.13,4.13,0,0,1,1.56-.3C65.64,18.66,65.9,18.92,65.67,19.41Z"/><path class="cls-1" d="M168.71,21.29a5.59,5.59,0,0,0-1.05-.27,8.12,8.12,0,0,0-1.76-.16c-1.1.11-2.19.37-3.3.48-2.62.26-5.25.47-7.88.68q-3.6.3-7.2.53a7.5,7.5,0,0,1-2.17-.1,3.07,3.07,0,0,1-2-1.92c-.12-.25-.45-.4-.68-.6a4.83,4.83,0,0,0-.51.68c-.26.49-.45,1-.73,1.5a1.91,1.91,0,0,1-2.4.58,14.15,14.15,0,0,1-1.82-1.81.79.79,0,0,1,0-.61c.42-1.73.87-3.44,1.28-5.17a10.25,10.25,0,0,0-.08-5.52,2,2,0,0,0-2.59-1.35,2.88,2.88,0,0,0-1.82,2.28,10.83,10.83,0,0,0-.18,3.63c.24,1.86.76,3.69,1.16,5.53.12.52.47,1.15.3,1.54a10.83,10.83,0,0,1-1.54,2.39.82.82,0,0,1-1.3.1A18.08,18.08,0,0,1,130.82,22a1.17,1.17,0,0,1,0-.85,26.18,26.18,0,0,0,.86-2.73c.25-1.38.27-2.8.51-4.19a4.54,4.54,0,0,0-.74-3.37A1.71,1.71,0,0,0,130,9.9a1.51,1.51,0,0,0-1.6,1.13,8.62,8.62,0,0,0-.42,1.7,20.37,20.37,0,0,0,.84,7.48c.21.8.64,1.61-.1,2.38-.4.42-.78.87-1.22,1.25a2.48,2.48,0,0,1-1.91.78c1.66-.78,1.79-.87,2.48-1.77a2.87,2.87,0,0,0,0-3.61,2.88,2.88,0,0,0-2.36-.79,4.58,4.58,0,0,0-3.15,4.89c0,.26.27.67-.23.72s-.85.06-1-.45c-.24-.68-.43-1.38-.71-2.05a5.53,5.53,0,0,0-.6-.86c-.09-.14-.23-.33-.2-.45A1.62,1.62,0,0,0,117.94,18a1.74,1.74,0,0,0-1.28,2.57,6.82,6.82,0,0,0,1.14,1,5.14,5.14,0,0,1-3.28,2.11,5.81,5.81,0,0,0,.31-1.16,2.87,2.87,0,0,0-.19-1.28c-.27-.57-.63-.52-1,0A7.36,7.36,0,0,1,110,23.9a1.76,1.76,0,0,1-.68,0,4.91,4.91,0,0,1,.08-.67c0-.16.21-.28.3-.42,1-1.48,2.54-2.24,3.85-3.31.14-.11.29-.21.45-.32a.61.61,0,0,1,.12-.16.78.78,0,0,1,.29-.28h0l0-.05a2.25,2.25,0,0,0-1.61-.53c-1.38.19-2.78.29-4.17.37-.89.05-1.79,0-2.73,0a4.2,4.2,0,0,1,0-.51c.44-2,.88-3.94,1.35-5.9.4-1.67.87-3.32,1.25-5,.51-2.22,1-4.45,1.44-6.68,0-.12,0-.37-.12-.39a.65.65,0,0,0-.52.05c-.37.36-.67.78-1,1.16-1.19,1.3-2.36,2.64-3.59,3.9-1.89,1.92-3.82,3.79-5.74,5.68-.56.54-1.15,1.06-1.76,1.63-.58-1.73-1.08-3.35-1.66-4.92-.45-1.22-1-2.41-1.53-3.58a1.28,1.28,0,0,0-2-.35l1.65,4.48c.25.68.51,1.35.77,2,.4,1.05.81,2.1,1.19,3.16a.74.74,0,0,1-.09.64c-.87.89-1.77,1.75-2.68,2.6-1.12,1.05-2.26,2.07-3.37,3.13-.08.08,0,.52,0,.54a7.75,7.75,0,0,0,2.38.68c1.78,0,3.55-.2,5.33-.36a.77.77,0,0,1,1,.61c.53,1.56,1.11,3.1,1.65,4.66s1,3.09,1.57,4.63a.77.77,0,0,0,.49.36c.12,0,.34-.17.41-.31a12,12,0,0,0,.65-1.63c.65-2.22,1.3-4.45,1.9-6.7.41-1.54.37-1.55,1.92-1.74a2.3,2.3,0,0,1,.26,0l2.22-.14c0,.1,0,.15,0,.18l-.25.29a6.86,6.86,0,0,0-1.69,2.73,1.62,1.62,0,0,0,1.29,2.21,1.75,1.75,0,0,0,1.06-.08c1.17-.52,2.31-1.11,3.46-1.68.52,1.2,1.73,1.81,2.75,1.06a25,25,0,0,0,2.9-2.83l.33-.34a1.92,1.92,0,0,1,.3.42c.23.61.4,1.24.67,1.84a2.16,2.16,0,0,0,2,1.27,15.12,15.12,0,0,1,2.23.17,4.3,4.3,0,0,0,3.44-.67l2.08-1.66c.19.24.38.51.59.74s.49.43.71.66a2,2,0,0,0,3.18.08c.62-.63,1.19-1.33,1.81-2,.45.37.92.78,1.39,1.18,1.49,1.24,3.84,1.14,4.69-.71a4.57,4.57,0,0,1,.58-.78,2.85,2.85,0,0,0,2.55,1.57c.83,0,1.67,0,2.51,0,1.35,0,2.7-.12,4.05-.16,2-.06,4,0,6-.16,3.06-.26,6.1-.67,9.15-1a9.83,9.83,0,0,0,1.68-.42c.16-.06.27-.28.4-.42A2.36,2.36,0,0,0,168.71,21.29ZM93,19.14l3.44-3.51c.37,1.06.75,2.13,1.14,3.27Zm9,6.56c-.74-1.75-1.43-3.35-2.18-5.11l3.7-.21C103.06,22.17,102.58,23.86,102.05,25.7Zm2.14-7.7c-.11.53-.34.74-.85.74-1.2,0-2.41.05-3.61,0a.59.59,0,0,1-.45-.31c-.46-1.36-.93-2.71-1.28-4.1-.07-.26.3-.72.57-1,.85-.8,1.79-1.52,2.64-2.33,1.79-1.71,3.55-3.46,5.32-5.2.19-.19.36-.4.54-.6l.19.1c-.49,2-1,3.91-1.46,5.86C105.25,13.48,104.7,15.74,104.19,18Zm14.49,2.13c-.05.08-.41,0-.78,0l.71-.71h.17A2.17,2.17,0,0,1,118.68,20.13Zm5.57,3.59a.56.56,0,0,1-.44-.31c-.26-1.62,1-3.83,2.72-3.84.8,0,1.17.51.94,1.3C127,22.51,125.71,23.22,124.25,23.72Zm6-4.83c0,.2-.08.41-.12.61l-.21,0c-.46-2.69-1.21-5.38.1-8.15a4.53,4.53,0,0,1,.6,1.31,17.05,17.05,0,0,1,.08,3C130.63,16.75,130.41,17.82,130.25,18.89Zm6.15-.39a6.52,6.52,0,0,1-.33-.83c-.28-1.14-.58-2.29-.8-3.45A7.06,7.06,0,0,1,136,10c.17-.37.42-.56.74-.06a4.92,4.92,0,0,1,.5,3.23.11.11,0,0,1,0,.05c0,.14,0,.27,0,.41a1.89,1.89,0,0,1,0,.41v.09l0,.24s0,0,0,0a.6.6,0,0,1,0,.19c-.16,1.28-.35,2.56-.53,3.85Z"/><path class="cls-1" d="M170.7,21.25c-1.08-.26-2.06-.44-3-.74a27.68,27.68,0,0,1-2.83-1.11.66.66,0,0,1-.31-1c.26-.38.64-.3,1.07-.09a20.48,20.48,0,0,0,2.84,1.13c1.39.4,2.82.68,4.23,1a.47.47,0,0,1,.12.82,16.31,16.31,0,0,1-1.92,1.41,7.1,7.1,0,0,0-2.41,2.08c-.2.3-.49.51-.81.22a.59.59,0,0,1,0-.95l2.49-2.31Z"/><path class="cls-1" d="M36.39,15.5c0,.77-.33,1.19-.76,1.19a1,1,0,0,1-.89-.86c0-.42.54-1,1-.87S36.24,15.38,36.39,15.5Z"/></g></g></svg>