<svg xmlns="http://www.w3.org/2000/svg" viewBox="0 0 533.43 441.85"><defs><style>.cls-1{fill:#fff;opacity:.74}</style></defs><g id="Layer_2" data-name="Layer 2"><g id="Layer_1-2" data-name="Layer 1"><polygon points="175.26 81.19 177.37 77.61 178.84 81.19 182.94 81.19 179.68 83.81 179.99 87.07 176.94 84.86 173.69 87.07 174.42 83.6 172.42 81.08 175.26 81.19" class="cls-1"/><polygon points="237.23 85.85 237.97 83.22 240.81 85.85 244.91 84.53 242.8 88.27 244.91 92.16 240.38 90.58 239.02 93.1 237.76 89.21 233.02 88.16 237.23 85.85" class="cls-1"/><polygon points="162.01 65.83 162.01 62.89 164.75 64.36 167.06 64.36 167.06 66.57 168.32 69.3 165.17 69.3 163.28 72.14 162.01 69.3 159.18 68.36 162.01 65.83" class="cls-1"/><polygon points="155.18 83.39 155.18 81.61 156.76 83.39 158.65 82.5 157.81 84.02 158.65 85.71 156.91 85.71 155.79 87.07 155.79 85.6 153.39 84.86 155.18 83.39" class="cls-1"/><polygon points="111.13 198.12 114.3 194.38 114.3 198.8 119.24 200.08 115.18 203.23 115.18 208.59 111.83 204.84 106.98 204.76 109.02 201.87 105.36 197.7 111.13 198.12" class="cls-1"/><polygon points="256.81 3.01 257.79 0 260.03 2.24 264.59 .77 261.85 4.77 263.68 7.43 259.54 6.66 258.28 8.69 256.81 5.54 253.02 3.79 256.81 3.01" class="cls-1"/><polygon points="229.75 2.8 230.59 .98 231.85 2.8 233.74 2.8 232.3 3.93 233.18 6.45 230.52 5.47 229.12 6.45 229.12 4.35 226.66 2.38 229.75 2.8" class="cls-1"/><polygon points="256.81 28.95 256.81 24.75 260.7 26.85 263.22 26.32 262.69 28.95 264.59 31.58 260.7 32 259.43 34.73 258.17 31.79 254.39 31.48 256.81 28.95" class="cls-1"/><polygon points="218.43 33.16 219.69 31.37 221.06 33.16 223.58 33.16 221.79 35.26 221.79 37.57 220.11 36.1 218.43 37.15 218.43 35.58 215.8 33.05 218.43 33.16" class="cls-1"/><polygon points="181.9 199.92 182.79 195.84 185.22 199.28 189.56 199.28 185.73 202.47 186.62 205.66 183.3 204.9 179.98 206.69 179.98 202.22 177.94 200.3 181.9 199.92" class="cls-1"/><polygon points="35.41 259.74 34.9 255.51 38.22 257.62 42.69 256.16 41.67 260.38 44.73 264.14 39.82 264.14 38.73 267.91 36.69 263.44 32.1 263.06 35.41 259.74" class="cls-1"/><polygon points="55.02 138.63 58.09 137.36 58.09 133.65 60.77 135.57 64.98 133.65 63.83 137.87 66.13 140.8 62.04 140.8 60.57 144.7 59.62 140.42 55.02 138.63" class="cls-1"/><polygon points="123.42 157.2 120.11 154.65 124.06 153.88 124.06 150.82 126.49 153.88 130.57 154.01 127.64 156.56 129.3 159.63 125.98 157.97 123.42 159.63 123.42 157.2" class="cls-1"/><polygon points="4.4 184.92 4.4 179.73 7.4 183.64 11.66 183.9 8.77 186.96 11.66 191.81 6.89 190.11 2.47 192.92 3.06 188.84 0 186.79 4.4 184.92" class="cls-1"/><path d="M316.34,405.28c0-.26-.51-4.09-.51-4.09l3.39,1.53,4.27-2.42-1,4.66,3,3.38h-4.21l-.9,4.08-2.93-4.34-4.34.13Z" class="cls-1"/><polygon points="337.21 415.17 336.77 410.89 341.36 412.42 345.96 410.25 344.56 414.91 347.17 418.11 342.83 418.11 341.24 422.51 338.17 418.62 333.7 418.36 337.21 415.17" class="cls-1"/><polygon points="210.31 305.37 210.31 302.3 214.14 303.32 218.67 300.52 217.33 305.37 220.39 307.28 215.35 308.94 214.07 313.47 212.22 309.58 206.54 308.43 210.31 305.37" class="cls-1"/><polygon points="301.52 438.4 299.16 436.94 301.52 435.59 301.9 432.4 303.95 434.89 307.52 434.19 305.48 436.94 307.52 438.98 303.75 438.47 301.97 441.85 301.52 438.4" class="cls-1"/><polygon points="272.93 414.31 273.75 411.4 275.73 413.99 280.78 413.44 277.84 416.86 278.96 420.21 275.61 418.58 273.15 420.85 272.7 416.96 269.22 415.74 272.93 414.31" class="cls-1"/><polygon points="67.27 304.67 65.65 302.79 68.97 302.79 70.33 300.32 71.01 302.96 74.25 303.05 71.1 305.09 71.78 307.47 69.14 306.37 66.42 307.47 67.27 304.67" class="cls-1"/><polygon points="59.22 351.26 59.99 348.07 63.18 351.26 67.65 351.26 64.84 353.43 64.71 355.73 61.14 354.58 57.69 356.88 58.59 353.69 55.78 351.64 59.22 351.26" class="cls-1"/><polygon points="25.06 203.9 26 201.26 27.02 203.9 29.57 203.9 28.38 205.52 29.57 208.24 26.25 207.13 23.62 208.24 24.04 206.11 22.34 204.15 25.06 203.9" class="cls-1"/><path d="M279.26,372.24V370l-1.71-1.73,3.75-1.17,1.36-4.89,1,5h3.75l-2.56,3.12,1,2.72-3.4-.83Z" class="cls-1"/><polygon points="294.06 355.73 294.06 350.92 299 353.69 302.23 352.11 302.23 356.54 304.45 359.11 299.25 359.11 296.79 362.83 295.43 359.11 291.17 357.58 294.06 355.73" class="cls-1"/><polygon points="165.62 370.18 166.3 366.94 167.66 370.18 171.75 370.18 168.69 372.05 168.69 374.94 165.62 374.28 163.41 375.96 163.41 373.07 161.54 371.45 165.62 370.18" class="cls-1"/><polygon points="179.41 359.28 179.41 354.86 184.18 356.47 186.73 354.86 186.73 358.09 190.64 360.64 185.03 361.5 185.03 365.58 181.79 362.18 176.86 362.18 179.41 359.28" class="cls-1"/><polygon points="404.97 245.86 407.27 243.13 409.14 246.45 412.71 246.88 409.65 249.26 409.31 253.18 405.9 251.3 402.93 252.58 402.93 249.09 400.63 246.2 404.97 245.86" class="cls-1"/><polygon points="436.8 235.98 438.75 233.69 440.46 236.66 443.78 237.43 441.14 238.71 441.05 242.28 438.58 239.64 435.05 241.77 435.86 238.37 433.48 236.15 436.8 235.98" class="cls-1"/><polygon points="448.37 247.81 447.95 245.86 450.5 246.45 452.63 245 452.12 247.81 453.9 249.77 450.93 250.11 450.07 252.07 448.88 249.6 445.99 249.26 448.37 247.81" class="cls-1"/><polygon points="409.08 345 409.08 341.69 412.02 343.35 415.71 341.69 414.15 345 416.23 347.43 412.66 346.92 411.13 350.11 410.36 347.05 406.4 346.92 409.08 345" class="cls-1"/><polygon points="455.17 331.6 457.47 328.28 458.75 331.6 461.68 332.37 459 334.67 459.25 338.24 456.19 335.69 452.23 336.83 453.89 333.9 452.23 331.35 455.17 331.6" class="cls-1"/><polygon points="431.04 329.56 432.77 326.5 434.23 329.56 438.38 329.56 434.71 332.37 435.25 336.45 431.94 333.58 427.98 335.5 428.62 332.24 426.66 328.98 431.04 329.56" class="cls-1"/><polygon points="414.66 378.03 414.66 374.2 416.62 376.58 419.08 375.73 417.98 378.79 419.51 381.18 416.23 380.5 414.66 383.22 414.66 380.58 412.02 378.71 414.66 378.03" class="cls-1"/><polygon points="435.86 163.3 438.75 159.47 439.86 163.3 444.03 164.15 441.31 167.47 442.07 172.15 437.82 168.92 434.33 170.79 434.33 166.71 431.69 162.96 435.86 163.3" class="cls-1"/><polygon points="397.14 179.86 396.63 177.11 399.12 178.48 401.54 177.11 401.1 179.47 402.75 181.64 399.69 181.2 398.86 182.86 397.84 181 395.48 180.81 397.14 179.86" class="cls-1"/><polygon points="467.58 30.83 469.45 28.83 469.79 31.29 472.34 31.93 470.6 33.34 470.43 36.23 468.17 34.31 464.09 34.78 465.66 32.78 464.09 30.19 467.58 30.83" class="cls-1"/><polygon points="274.67 99.55 277.98 96.76 277.98 100.39 281.88 101.65 278.67 103.18 278.27 106.44 275.51 103.86 271.88 105.38 273.1 102.6 271.15 98.6 274.67 99.55" class="cls-1"/><polygon points="288.45 89.98 288.92 87.3 290.71 89.24 294.02 89.3 291.76 91.61 293.02 94.55 289.81 93.24 287.5 96.18 287.5 92.61 284.35 91.4 288.45 89.98" class="cls-1"/><polygon points="523.09 215.11 523.09 210 528.07 213.58 532.41 211.41 530.88 216.39 533.43 219.45 528.26 219.45 525.64 223.92 524.49 219.32 519.64 218.69 523.09 215.11" class="cls-1"/></g></g></svg>