<svg xmlns="http://www.w3.org/2000/svg" viewBox="0 0 100 100"><defs><style>.cls-1{fill:none}.cls-2{fill:#b3b3b3}</style></defs><g id="Layer_2" data-name="Layer 2"><g id="Layer_1-2" data-name="Layer 1"><rect width="100" height="100" class="cls-1"/><path d="M5.75,57.44a8.56,8.56,0,0,0,1.76,2.87,7.45,7.45,0,0,0,2.66,1.83,8.68,8.68,0,0,0,3.34.63,8.17,8.17,0,0,0,7.75-5.36,10.33,10.33,0,0,0,.63-3.7V32.64H27V66.77H21.94V63.6a11.7,11.7,0,0,1-4,2.78,12.78,12.78,0,0,1-5,1,13.56,13.56,0,0,1-5.09-1,12,12,0,0,1-4.1-2.71A12.91,12.91,0,0,1,1,59.48,14.38,14.38,0,0,1,0,54V32.64H5.12V53.71A10.62,10.62,0,0,0,5.75,57.44Z" class="cls-2"/><path d="M35.84,32.64V45.08a12.93,12.93,0,0,1,3.95-2.71,11.76,11.76,0,0,1,4.87-1,12.89,12.89,0,0,1,5.12,1,13.38,13.38,0,0,1,4.15,2.78,13,13,0,0,1,2.77,4.15,12.59,12.59,0,0,1,1,5.07,12.38,12.38,0,0,1-1,5,13,13,0,0,1-2.77,4.12,13.21,13.21,0,0,1-4.15,2.78,12.73,12.73,0,0,1-5.12,1,12.13,12.13,0,0,1-4.9-1,13,13,0,0,1-4-2.71v3.12H30.91V32.64Zm.56,25.11a8.51,8.51,0,0,0,1.83,2.73A8.93,8.93,0,0,0,41,62.34a8.37,8.37,0,0,0,3.36.68,8.29,8.29,0,0,0,3.32-.68,8.56,8.56,0,0,0,2.7-1.86,9,9,0,0,0,1.83-2.73,8.21,8.21,0,0,0,.68-3.36A8.42,8.42,0,0,0,52.17,51a8.92,8.92,0,0,0-1.83-2.76,8.14,8.14,0,0,0-2.7-1.82,8.6,8.6,0,0,0-9.37,1.82A8.8,8.8,0,0,0,36.42,51a8.84,8.84,0,0,0,0,6.75Z" class="cls-2"/><path d="M60.51,49.37a13.15,13.15,0,0,1,2.68-4.12,12.91,12.91,0,0,1,14.09-2.86,11.89,11.89,0,0,1,4,2.71,12.27,12.27,0,0,1,2.58,4.1,13.9,13.9,0,0,1,.93,5.14V56H64.51a8.18,8.18,0,0,0,1,2.8A8.48,8.48,0,0,0,67.31,61a8.25,8.25,0,0,0,2.49,1.49,8,8,0,0,0,3,.54,8.52,8.52,0,0,0,7.16-3.66L83.47,62a13,13,0,0,1-10.72,5.32,13.75,13.75,0,0,1-5.2-1,12.66,12.66,0,0,1-4.19-2.73,12.8,12.8,0,0,1-2.8-4.12,13.22,13.22,0,0,1-.05-10.11Zm6.85-1.93a8.34,8.34,0,0,0-2.76,4.61H79.77a8.1,8.1,0,0,0-2.71-4.61,7.66,7.66,0,0,0-9.7,0Z" class="cls-2"/><path d="M94,48a6.6,6.6,0,0,0-1.56,4.63V66.77H87.47V41.91h4.88V45a6.63,6.63,0,0,1,5.94-3.27H100v4.58H98A5.18,5.18,0,0,0,94,48Z" class="cls-2"/></g></g></svg>