<svg xmlns="http://www.w3.org/2000/svg" viewBox="0 0 100 100"><defs><style>.cls-1{fill:none;}.cls-2{fill:#b3b3b3;}</style></defs><g id="Layer_2" data-name="Layer 2"><g id="Layer_1-2" data-name="Layer 1"><rect class="cls-1" width="100" height="100"/><path class="cls-2" d="M81.45,0H18.55C11.17,0,5.14,6.73,5.14,15s6,15,13.41,15H66.17A1,1,0,0,1,67,31.45L54.7,56c-.45.72.36,1.57,1,1L89.15,27.18A15.52,15.52,0,0,0,94.86,15C94.86,6.73,88.83,0,81.45,0Z"/><path class="cls-2" d="M45.3,44c.45-.72-.36-1.57-1-1L10.85,72.81A15.55,15.55,0,0,0,5.14,85c0,8.23,6,15,13.41,15h62.9c7.38,0,13.41-6.73,13.41-15s-6-15-13.41-15H33.83A1,1,0,0,1,33,68.55Z"/></g></g></svg>